<?xml version="1.0" encoding="UTF-8" standalone="no"?>
<!DOCTYPE svg PUBLIC "-//W3C//DTD SVG 1.1//EN" "http://www.w3.org/Graphics/SVG/1.1/DTD/svg11.dtd">
<svg width="100%" height="100%" viewBox="0 0 1334 1334" version="1.1" xmlns="http://www.w3.org/2000/svg" xmlns:xlink="http://www.w3.org/1999/xlink" xml:space="preserve" xmlns:serif="http://www.serif.com/" style="fill-rule:evenodd;clip-rule:evenodd;stroke-linejoin:round;stroke-miterlimit:2;">
    <g transform="matrix(6.25841,0,0,6.25841,-1541,-765.498)">
        <g>
            <path d="M413.063,186.27C413.063,185.168 410.957,183.711 406.711,181.895C402.48,180.074 399.348,179.336 397.352,179.715C396.629,179.895 396.344,180.203 396.539,180.668C397.262,182.578 398.809,185.855 401.184,190.516C407.375,188.59 411.336,187.187 413.063,186.27ZM336.816,234.113C335.898,226.281 332.621,214.527 326.969,198.852C321.496,183.82 318.781,176.531 318.781,176.98C318.781,174.242 319.5,170.465 320.957,165.641C321.227,164.812 321.785,164.812 322.598,165.641C324.504,167.727 327.113,172.246 330.391,179.156C334.492,187.832 337.5,196.437 339.406,205.004C341.227,214.941 343.098,224.879 345.008,234.812C346.734,243.203 349.793,250.941 354.168,258.051C357.91,264.332 363.512,268.941 370.98,271.859C370.98,261.562 373.66,254.758 379.043,251.48C383.598,248.746 391.52,245.199 402.82,240.824L351.703,240.824C350.336,240.824 349.453,240.664 349.039,240.34C348.641,240.016 348.516,239.223 348.695,237.945C349.254,232.113 351.02,227.324 354.023,223.602C362.684,212.746 376.758,202.484 396.254,192.836C395.441,191.379 394.254,189.059 392.707,185.855C391.984,184.395 391.625,182.543 391.625,180.254C391.625,176.691 392.527,173.738 394.344,171.363C396.449,168.359 399.582,166.863 403.777,166.863C407.07,166.863 411.75,168.953 417.852,173.145C424.332,177.52 427.57,181.172 427.57,184.09C426.652,188.016 425.52,191.648 424.152,195.016C418.949,196.582 412.668,198.488 405.289,200.777C405.559,205.059 405.145,207.203 404.047,207.203C403.234,207.203 402.371,205.602 401.453,202.395C395.801,204.59 388.656,208.371 379.996,213.754C371.699,218.937 365.688,223.508 361.961,227.414C366.785,227.777 373.844,227.973 383.148,227.973C394.344,227.973 408.422,227.687 425.375,227.145C442.313,226.605 450.02,226.336 448.469,226.336C449.371,226.336 449.93,226.461 450.109,226.73C450.199,226.93 450.055,227.504 449.695,228.512L446.418,236.848C446.039,237.855 445.32,238.539 444.223,238.898C398.125,253.586 375.086,262.605 375.086,265.973C375.086,268.797 382.141,273.406 396.254,279.797C396.988,280.156 397.313,280.84 397.223,281.848L396.254,290.867C396.07,291.875 395.441,292.379 394.344,292.379C389.969,292.379 384.461,291.281 377.801,289.082C368.516,285.988 361.133,281.758 355.66,276.375C350.566,271.263 346.734,265.07 344.195,257.781C342.738,253.496 341.047,246.207 339.137,235.895C339.137,237.73 339.047,239.402 338.867,240.953C338.398,244.516 337.715,246.98 336.816,248.332C330.066,258.359 321.316,267.395 310.57,275.402C299.18,283.883 289.477,288.129 281.465,288.129C276.73,288.129 273.133,286.113 270.664,282.102C268.578,278.824 267.535,274.773 267.535,269.935C267.535,260.375 269.531,250.617 273.547,240.684C274.445,238.594 275.094,237.551 275.453,237.531C275.633,237.641 275.723,237.855 275.723,238.215C275.723,238.863 275.543,239.906 275.184,241.367C272.359,251.211 270.953,258.5 270.953,263.234C270.953,266.961 272.125,269.841 274.5,271.841C276.496,273.566 279.109,274.449 282.293,274.449C290.934,274.449 302.094,268.977 315.773,258.035C328.52,247.828 335.539,239.855 336.816,234.113Z" style="fill:rgb(0,162,181);fill-rule:nonzero;"/>
            <path d="M390.512,151.871C390.926,150.539 391.016,149.223 390.797,147.891C390.527,146.434 389.863,145.715 388.816,145.715C388.313,145.715 387.629,145.949 386.766,146.434C385.902,146.902 385.469,147.371 385.469,147.82C385.469,148.883 387.145,150.215 390.512,151.871ZM387.918,157.754C383.688,155.559 381.563,153.254 381.563,150.844C381.563,147.926 382.914,145.266 385.598,142.852C388.297,140.441 390.527,139.539 392.293,140.187C393.805,140.727 394.543,142.348 394.543,145.031C394.543,147.441 394.055,150.16 393.047,153.164C395.191,154.391 396.539,155.453 397.078,156.316C397.078,157.449 396.125,159.375 394.199,162.113C393.66,161.246 392.363,160.203 390.313,158.98C387.953,162.254 384.949,165.242 381.293,167.926C377.152,170.984 373.34,173.289 369.883,174.836C369.16,175.199 365.148,176.727 357.859,179.41C356.723,179.824 355.969,180.039 355.609,180.039C355.43,180.039 355.34,179.984 355.34,179.895C355.34,179.625 355.969,179.066 357.246,178.258C362.609,175.07 368.012,171.852 373.43,168.609C379.906,164.703 384.73,161.066 387.918,157.754Z" style="fill:rgb(0,162,181);fill-rule:nonzero;"/>
            <path d="M345.637,196.133C358.289,191.523 371.734,186.629 385.938,181.426C386.676,181.156 387.109,181.066 387.234,181.156C387.434,181.281 387.379,181.676 387.109,182.309C386.281,184.324 385.633,185.531 385.129,185.945C373.195,190.227 359.242,195.664 343.313,202.289C343.801,200.414 344.574,198.363 345.637,196.133Z" style="fill:rgb(255,97,5);fill-rule:nonzero;"/>
            <path d="M358.379,162.887C358.379,164.668 357.984,166.504 357.211,168.41C356.164,170.879 354.816,172.121 353.18,172.121C350.586,172.121 348.73,170.336 347.633,166.773C346.41,171.344 344.16,173.633 340.867,173.633C339.641,173.633 338.578,173 337.66,171.777C336.617,170.32 336.098,168.41 336.098,166.035L336.098,160.418C336.098,159.969 335.773,159.645 335.16,159.465C334.547,159.285 334.242,158.816 334.242,158.027C334.242,156.801 334.766,155.594 335.809,154.406C336.762,153.363 337.5,152.84 337.984,152.84C338.633,152.84 338.957,154.066 338.957,156.531C338.957,157.809 338.852,158.871 338.652,159.754C338.438,160.617 338.348,161.375 338.348,162.004C338.348,163.316 338.617,164.594 339.156,165.836C339.805,167.242 340.598,167.961 341.551,167.961C342.793,167.961 343.945,167.402 345.008,166.27C346.086,165.152 346.625,163.859 346.625,162.344C346.625,161.48 346.375,160.004 345.871,157.898C345.367,155.812 345.113,154.496 345.113,153.992C345.113,153.543 345.348,152.824 345.797,151.852C346.266,150.863 346.59,150.375 346.824,150.375C347.238,150.375 347.777,151.762 348.426,154.551C349.094,157.324 349.434,159.375 349.434,160.707C349.434,164.523 350.91,166.449 353.863,166.449C355.141,166.449 355.934,165.801 356.258,164.523C353.699,160.059 352.422,156.641 352.422,154.266C352.422,152.914 352.766,151.691 353.449,150.645C353.914,149.926 354.223,149.531 354.402,149.492C354.582,149.492 354.727,149.945 354.816,150.863C354.961,152.121 355.156,153.184 355.43,153.992C355.48,154.082 356.094,155.668 357.281,158.711C358.004,160.547 358.379,161.934 358.379,162.887Z" style="fill:rgb(0,162,181);fill-rule:nonzero;"/>
            <path d="M319.375,147.207C332.027,142.602 345.473,137.703 359.676,132.5C360.414,132.23 360.848,132.141 360.973,132.23C361.172,132.359 361.117,132.754 360.848,133.383C360.02,135.398 359.371,136.605 358.867,137.02C346.934,141.305 332.98,146.738 317.051,153.363C317.539,151.492 318.313,149.441 319.375,147.207Z" style="fill:rgb(247,101,26);fill-rule:nonzero;"/>
            <path d="M334.078,268.094C335.449,268.094 337.375,269.052 339.859,270.992C342.344,272.937 343.691,274.613 343.926,276.016C343.961,276.396 343.637,277.328 342.953,278.859C342.27,280.391 341.801,281.199 341.531,281.289C339.301,281.918 337.066,282.531 334.836,283.125C332.047,284.043 330.121,285.125 329.023,286.348C332.117,295.742 333.684,305.012 333.684,314.176C333.684,316.875 333.379,319.594 332.785,322.383C332.551,323.336 332.371,323.84 332.227,323.895C331.957,323.895 331.828,322.293 331.828,319.109C331.828,313.816 331.055,307.445 329.508,299.992C327.961,292.539 327.188,288.254 327.188,287.156C327.188,283.469 328.23,280.77 330.316,279.023C331.324,278.211 333.215,277.383 335.988,276.574C334.855,275.422 333.758,274.863 332.711,274.863C332.207,274.863 331.508,275.457 330.59,276.646C329.688,277.832 329.164,278.427 329.023,278.41C328.789,278.427 328.734,277.922 328.824,276.914C329.453,271.031 331.219,268.094 334.078,268.094Z" style="fill:rgb(0,162,181);fill-rule:nonzero;"/>
            <path d="M442.441,203.906C442.402,203.168 442.078,202.289 441.434,201.262C440.785,200.234 440.137,199.676 439.453,199.57C438.336,199.391 437.348,199.77 436.52,200.687C437.508,201.91 439.109,203.242 441.27,204.699C441.738,205.004 442.043,205.094 442.188,204.969C442.352,204.863 442.422,204.5 442.441,203.906ZM433.223,198.309C433.746,197.879 434.25,197.934 434.719,198.473C436.934,195.23 439.039,193.754 441.02,194.078C442.313,194.277 443.449,195.285 444.383,197.105C445.32,198.902 445.609,200.918 445.246,203.117C445.141,203.891 444.926,204.664 444.617,205.437C443.305,208.785 441.898,210.332 440.406,210.102C439.109,209.902 437.508,208.91 435.637,207.129C433.926,205.617 432.719,204.195 432.02,202.883C430.199,206.465 428.094,209.254 425.719,211.215C421.723,214.562 416.594,217.316 410.293,219.496C405.359,221.258 402.301,222.051 401.129,221.855C400.949,221.836 398.25,222.016 393.031,222.449C387.504,222.898 384.066,223.148 382.68,223.148C380.699,223.168 379.711,223.078 379.746,222.898C379.766,222.754 380.844,222.395 382.949,221.816C388.836,220.484 397.871,218.039 410.059,214.492C419.074,211.305 424.996,208.211 427.77,205.187C429.086,203.312 430.902,201.027 433.223,198.309Z" style="fill:rgb(247,101,26);fill-rule:nonzero;"/>
            <path d="M432.809,282.641C428.258,286.742 422.406,288.797 415.262,288.797C413.027,288.797 411.211,288.203 409.789,287.051C408.383,285.879 407.684,284.422 407.684,282.641C407.684,279.488 408.996,276.341 411.641,273.207C414.234,270.419 416.863,267.645 419.488,264.855C420.047,264.281 419.887,263.812 419.023,263.504C417.059,262.82 414.953,262.48 412.723,262.48C411.496,262.48 410.148,262.82 408.691,263.504C408.383,263.633 408.168,263.648 408.078,263.559C407.988,263.469 408.023,263.254 408.148,262.875C409.066,260.699 410.004,259.238 410.957,258.5C412.094,257.602 413.855,257.152 416.215,257.152C421.543,257.152 424.207,258.449 424.207,261.039C424.207,263 422.496,265.773 419.074,269.375C416.664,271.841 414.254,274.324 411.84,276.824C410.797,278.195 410.273,279.344 410.273,280.301C410.273,282.496 412.723,283.594 417.652,283.594C422.152,283.594 427.031,282.82 432.27,281.273C433.727,280.859 434.465,280.75 434.465,280.93C434.465,281.109 433.906,281.687 432.809,282.641Z" style="fill:rgb(0,162,181);fill-rule:nonzero;"/>
            <path d="M353.629,299.109C355.699,299.109 357.77,301.09 359.84,305.086C361.711,308.723 363.023,312.773 363.762,317.273C363.836,317.703 363.871,317.957 363.871,318.027C363.961,318.152 364.016,318.152 364.051,318.027C364.086,317.957 364.195,317.703 364.34,317.273C364.895,313.402 365.941,308.309 367.508,301.988C368.98,298.426 370.602,296.66 372.367,296.66C373.266,296.66 374.164,297.254 375.066,298.461C375.84,299.523 376.234,300.387 376.234,301.035C376.234,301.559 376.094,302.223 375.82,303.035C375.461,304.133 375.066,304.672 374.598,304.672C374.398,304.672 373.969,304.258 373.301,303.41C372.637,302.582 371.953,302.168 371.25,302.168C369.809,302.168 368.172,307.227 366.336,317.324C365.742,320.531 365.113,322.797 364.391,324.129C363.887,325.031 363.457,325.48 363.113,325.48C362.809,325.48 362.645,325.066 362.645,324.238C362.645,322.906 361.801,319.738 360.125,314.734C358.414,309.586 357.266,307.012 356.672,307.012C356.238,307.012 355.969,307.137 355.844,307.426C355.734,307.695 355.375,307.84 354.797,307.84C354.133,307.84 353.27,307.336 352.188,306.363C351.109,305.391 350.586,304.617 350.586,304.023C350.586,303.754 351.035,302.871 351.918,301.359C352.816,299.848 353.395,299.109 353.629,299.109Z" style="fill:rgb(247,101,26);fill-rule:nonzero;"/>
            <path d="M313.469,308.687C313.559,308.453 313.668,308.309 313.758,308.234C313.828,308.184 313.883,308.199 313.902,308.289C313.938,308.379 313.938,308.543 313.902,308.777C313.688,310.629 313.145,312.285 312.316,313.762C311.488,315.219 310.59,315.957 309.617,315.957C308.539,315.977 307.727,315.437 307.172,314.285C306.629,313.148 306.379,311.621 306.449,309.695C306.539,307.316 307.457,303.844 309.168,299.254C310.68,295.223 311.977,292.359 313.074,290.668C313.559,289.91 313.902,289.516 314.063,289.496C314.082,289.625 313.938,290.055 313.613,290.812C311.164,296.246 309.602,300.641 308.879,303.988C308.594,305.32 308.449,306.527 308.449,307.605C308.449,309.102 308.719,310.234 309.277,310.973C309.691,311.602 310.141,311.855 310.59,311.762C311.527,311.566 312.496,310.539 313.469,308.687Z" style="fill:rgb(255,97,5);fill-rule:nonzero;"/>
            <path d="M442.063,264.371C442.152,264.137 442.262,263.992 442.352,263.918C442.422,263.867 442.477,263.883 442.492,263.973C442.531,264.062 442.531,264.227 442.492,264.461C442.277,266.312 441.738,267.969 440.91,269.445C440.082,270.902 439.184,271.641 438.211,271.641C437.129,271.66 436.32,271.121 435.762,269.969C435.223,268.832 434.969,267.305 435.043,265.379C435.133,263 436.051,259.527 437.762,254.937C439.273,250.906 440.566,248.043 441.664,246.352C442.152,245.594 442.492,245.199 442.656,245.184C442.676,245.309 442.531,245.738 442.207,246.496C439.758,251.934 438.191,256.324 437.473,259.672C437.184,261.004 437.039,262.211 437.039,263.289C437.039,264.785 437.309,265.918 437.867,266.656C438.281,267.285 438.73,267.539 439.184,267.449C440.117,267.25 441.09,266.223 442.063,264.371Z" style="fill:rgb(255,97,5);fill-rule:nonzero;"/>
            <path d="M403.813,307.586C403.883,307.445 403.938,307.336 404.012,307.281C404.082,307.227 404.117,307.246 404.117,307.301C404.152,307.371 404.152,307.496 404.117,307.66C403.488,311.117 402.461,312.844 401.023,312.844C399.512,312.844 398.754,311.566 398.754,309.027C398.754,305.914 399.652,302.637 401.453,299.219C401.902,298.371 402.176,297.941 402.266,297.922C402.281,297.922 402.301,297.922 402.301,297.957C402.301,298.121 402.176,298.586 401.902,299.398C400.734,302.961 400.156,305.465 400.156,306.887C400.156,308.828 400.68,309.82 401.723,309.82C402.336,309.82 403.039,309.062 403.813,307.586Z" style="fill:rgb(255,97,5);fill-rule:nonzero;"/>
            <path d="M436.789,215.426C436.789,216.633 436.285,217.984 435.313,219.512C434.305,221.098 432.988,222.465 431.406,223.582C430.777,224.031 430.398,224.266 430.273,224.266C430.254,224.266 430.254,224.246 430.254,224.23C430.254,224.121 430.523,223.797 431.047,223.203C433.676,220.34 434.988,218.434 434.988,217.48C434.988,216.562 434.555,216.113 433.711,216.113C433.262,216.113 432.828,216.238 432.449,216.488C432.18,216.668 432,216.777 431.93,216.797C431.891,216.758 431.82,216.723 431.746,216.707C431.785,216.598 431.82,216.363 431.891,215.969C432.324,213.988 433.297,213.016 434.844,213.016C436.141,213.016 436.789,213.824 436.789,215.426Z" style="fill:rgb(0,162,181);fill-rule:nonzero;"/>
            <path d="M296.641,294.484C296.641,295.691 296.137,297.039 295.164,298.57C294.156,300.152 292.844,301.523 291.258,302.637C290.629,303.086 290.25,303.32 290.125,303.32C290.105,303.32 290.105,303.305 290.105,303.285C290.105,303.176 290.375,302.855 290.898,302.258C293.527,299.398 294.84,297.488 294.84,296.535C294.84,295.617 294.406,295.168 293.563,295.168C293.113,295.168 292.68,295.293 292.301,295.547C292.031,295.727 291.852,295.832 291.781,295.852C291.742,295.816 291.672,295.781 291.602,295.762C291.637,295.652 291.672,295.418 291.742,295.023C292.176,293.043 293.148,292.07 294.695,292.07C295.992,292.07 296.641,292.883 296.641,294.484Z" style="fill:rgb(0,162,181);fill-rule:nonzero;"/>
            <path d="M399.977,264.82C399.977,266.027 399.473,267.375 398.504,268.906C397.492,270.488 396.18,271.859 394.598,272.974C393.965,273.422 393.59,273.656 393.461,273.656C393.445,273.656 393.445,273.641 393.445,273.621C393.445,273.513 393.715,273.191 394.234,272.594C396.863,269.734 398.18,267.824 398.18,266.871C398.18,265.953 397.746,265.504 396.898,265.504C396.449,265.504 396.02,265.629 395.641,265.883C395.371,266.062 395.191,266.168 395.117,266.187C395.082,266.152 395.012,266.117 394.938,266.098C394.973,265.988 395.012,265.754 395.082,265.359C395.516,263.379 396.484,262.406 398.035,262.406C399.328,262.406 399.977,263.219 399.977,264.82Z" style="fill:rgb(255,97,5);fill-rule:nonzero;"/>
            <path d="M373.57,145.445C373.645,145.281 373.699,145.172 373.77,145.137C373.824,145.082 373.859,145.102 373.879,145.156C373.914,145.227 373.914,145.355 373.879,145.516C373.715,146.848 373.34,148.055 372.742,149.117C372.148,150.16 371.504,150.699 370.781,150.699C370.027,150.719 369.434,150.32 369.035,149.492C368.641,148.684 368.461,147.566 368.516,146.199C368.566,144.508 369.09,142.328 370.043,139.684C370.871,137.434 371.594,135.852 372.223,134.934C372.637,134.41 372.871,134.121 372.926,134.105C372.961,134.195 372.852,134.5 372.617,135.039C371.215,138.191 370.332,141.086 369.973,143.734C369.938,144.039 369.918,144.344 369.918,144.652C369.918,146.758 370.441,147.766 371.484,147.676C372.133,147.605 372.816,146.867 373.57,145.445Z" style="fill:rgb(255,97,5);fill-rule:nonzero;"/>
            <path d="M305.566,153.113C306.215,153.113 306.848,152.824 307.422,152.266C308.105,151.602 308.449,150.789 308.449,149.801C308.449,148.719 307.836,148.18 306.613,148.18C306.07,148.18 305.605,148.34 305.207,148.684C305.207,148.035 305.656,147.062 306.539,145.73C307.352,144.488 308.141,143.5 308.934,142.781C309.113,142.562 309.188,142.383 309.113,142.223C309.059,142.078 308.934,142.059 308.719,142.187C307.691,142.816 306.594,143.984 305.426,145.73C304.094,147.676 303.426,149.352 303.426,150.754C303.426,152.32 304.129,153.113 305.566,153.113Z" style="fill:rgb(255,97,5);fill-rule:nonzero;"/>
            <path d="M423.055,172.066C423.484,172.066 423.898,171.867 424.297,171.488C424.746,171.059 424.98,170.52 424.98,169.852C424.98,169.133 424.566,168.773 423.758,168.773C423.395,168.773 423.09,168.898 422.82,169.113C422.82,168.684 423.109,168.035 423.703,167.133C424.242,166.305 424.766,165.656 425.305,165.172C425.43,165.027 425.465,164.902 425.41,164.793C425.395,164.703 425.305,164.687 425.16,164.777C424.477,165.191 423.738,165.98 422.965,167.133C422.063,168.43 421.633,169.547 421.633,170.48C421.633,171.527 422.102,172.066 423.055,172.066Z" style="fill:rgb(0,162,181);fill-rule:nonzero;"/>
            <path d="M282.293,251.535C283.609,251.535 284.777,252.309 285.82,253.859C286.867,255.422 287.605,257.457 288.02,259.961C288.07,260.211 288.09,260.375 288.09,260.41C288.145,260.48 288.18,260.48 288.199,260.41C288.215,260.375 288.289,260.211 288.379,259.961C288.594,258.465 289.098,256.215 289.926,253.246C290.809,251.121 291.781,250.059 292.844,250.059C293.383,250.059 293.922,250.418 294.445,251.141C294.93,251.77 295.164,252.293 295.164,252.687C295.164,252.992 295.074,253.391 294.91,253.895C294.695,254.543 294.461,254.883 294.176,254.883C294.047,254.883 293.797,254.633 293.398,254.129C293.004,253.625 292.59,253.371 292.176,253.371C291.238,253.371 290.359,255.586 289.566,259.996C289.223,261.922 288.828,263.273 288.414,264.082C288.109,264.621 287.855,264.891 287.641,264.891C287.441,264.891 287.352,264.641 287.352,264.152C287.352,263.379 286.922,261.867 286.02,259.637C285.137,257.402 284.488,256.289 284.129,256.289C283.859,256.289 283.699,256.359 283.625,256.523C283.555,256.684 283.355,256.773 282.996,256.773C282.602,256.773 282.078,256.469 281.43,255.891C280.801,255.297 280.477,254.828 280.477,254.488C280.477,254.324 280.746,253.785 281.27,252.887C281.809,251.984 282.148,251.535 282.293,251.535Z" style="fill:rgb(255,97,5);fill-rule:nonzero;"/>
            <path d="M275.508,176.602C275.508,177.809 275.004,179.156 274.031,180.687C273.023,182.273 271.711,183.641 270.125,184.754C269.496,185.207 269.117,185.441 268.992,185.441C268.973,185.441 268.973,185.422 268.973,185.402C268.973,185.297 269.242,184.973 269.766,184.379C272.395,181.516 273.707,179.609 273.707,178.652C273.707,177.734 273.277,177.285 272.43,177.285C271.98,177.285 271.547,177.41 271.172,177.664C270.898,177.844 270.719,177.953 270.648,177.969C270.613,177.934 270.539,177.898 270.469,177.879C270.504,177.773 270.539,177.539 270.613,177.141C271.043,175.16 272.016,174.191 273.563,174.191C274.859,174.191 275.508,175 275.508,176.602Z" style="fill:rgb(0,162,181);fill-rule:nonzero;"/>
            <path d="M264.258,251.66C264.258,252.473 263.914,253.371 263.27,254.398C262.602,255.461 261.719,256.359 260.656,257.117C260.242,257.402 259.992,257.566 259.922,257.566C259.902,257.566 259.902,257.547 259.902,257.531C259.902,257.477 260.082,257.242 260.426,256.863C262.188,254.957 263.07,253.676 263.07,253.031C263.07,252.437 262.781,252.129 262.223,252.129C261.898,252.129 261.629,252.203 261.379,252.383C261.18,252.508 261.07,252.578 261.019,252.578C260.98,252.562 260.945,252.527 260.89,252.527C260.91,252.453 260.945,252.293 261,252.023C261.269,250.707 261.937,250.059 262.961,250.059C263.824,250.059 264.258,250.602 264.258,251.66Z" style="fill:rgb(255,97,5);fill-rule:nonzero;"/>
            <path d="M352.352,287.121C352.352,287.934 352.008,288.832 351.359,289.859C350.695,290.918 349.813,291.82 348.75,292.574C348.336,292.863 348.086,293.027 348.012,293.027C347.992,293.027 347.992,293.008 347.992,292.988C347.992,292.937 348.176,292.703 348.516,292.324C350.281,290.414 351.16,289.137 351.16,288.488C351.16,287.895 350.875,287.59 350.316,287.59C349.992,287.59 349.723,287.66 349.469,287.84C349.273,287.969 349.164,288.039 349.109,288.039C349.074,288.023 349.039,287.984 348.984,287.984C349.004,287.914 349.039,287.75 349.094,287.48C349.363,286.168 350.027,285.52 351.055,285.52C351.918,285.52 352.352,286.059 352.352,287.121Z" style="fill:rgb(255,97,5);fill-rule:nonzero;"/>
            <path d="M387.613,309.621C387.613,310.434 387.27,311.332 386.621,312.359C385.957,313.418 385.074,314.32 384.012,315.074C383.598,315.363 383.348,315.527 383.273,315.527C383.258,315.527 383.258,315.508 383.258,315.488C383.258,315.437 383.438,315.203 383.777,314.824C385.543,312.914 386.426,311.637 386.426,310.988C386.426,310.395 386.137,310.09 385.578,310.09C385.254,310.09 384.984,310.16 384.73,310.34C384.535,310.469 384.426,310.539 384.371,310.539C384.336,310.523 384.301,310.484 384.246,310.484C384.266,310.414 384.301,310.25 384.355,309.98C384.625,308.668 385.289,308.02 386.316,308.02C387.18,308.02 387.613,308.559 387.613,309.621Z" style="fill:rgb(0,162,181);fill-rule:nonzero;"/>
            <path d="M410.977,152.41C410.977,153.219 410.633,154.121 409.984,155.145C409.32,156.207 408.438,157.109 407.375,157.863C406.961,158.152 406.711,158.312 406.637,158.312C406.621,158.312 406.621,158.297 406.621,158.277C406.621,158.223 406.801,157.988 407.141,157.613C408.906,155.703 409.789,154.426 409.789,153.777C409.789,153.184 409.5,152.879 408.941,152.879C408.617,152.879 408.348,152.949 408.098,153.129C407.898,153.254 407.789,153.328 407.734,153.328C407.699,153.309 407.664,153.273 407.609,153.273C407.629,153.203 407.664,153.039 407.719,152.77C407.988,151.457 408.652,150.809 409.68,150.809C410.543,150.809 410.977,151.348 410.977,152.41Z" style="fill:rgb(255,97,5);fill-rule:nonzero;"/>
            <path d="M343.387,315.617C343.816,315.617 344.23,315.418 344.629,315.039C345.078,314.609 345.313,314.066 345.313,313.402C345.313,312.684 344.898,312.32 344.09,312.32C343.727,312.32 343.422,312.449 343.152,312.664C343.152,312.23 343.441,311.582 344.035,310.684C344.574,309.855 345.098,309.207 345.637,308.723C345.762,308.578 345.797,308.453 345.742,308.344C345.727,308.254 345.637,308.234 345.492,308.324C344.809,308.738 344.07,309.531 343.297,310.684C342.395,311.98 341.965,313.094 341.965,314.031C341.965,315.074 342.434,315.617 343.387,315.617Z" style="fill:rgb(0,162,181);fill-rule:nonzero;"/>
            <path d="M305.426,257.117C305.855,257.117 306.27,256.918 306.664,256.539C307.117,256.109 307.352,255.566 307.352,254.902C307.352,254.184 306.938,253.82 306.125,253.82C305.766,253.82 305.461,253.949 305.191,254.164C305.191,253.73 305.477,253.082 306.07,252.184C306.613,251.355 307.133,250.707 307.676,250.223C307.801,250.078 307.836,249.953 307.781,249.844C307.766,249.754 307.676,249.734 307.531,249.824C306.848,250.238 306.109,251.031 305.336,252.184C304.434,253.48 304.004,254.594 304.004,255.531C304.004,256.574 304.469,257.117 305.426,257.117Z" style="fill:rgb(0,162,181);fill-rule:nonzero;"/>
            <path d="M354.547,209.02C354.547,209.828 354.203,210.73 353.555,211.754C352.891,212.816 352.008,213.719 350.945,214.473C350.531,214.762 350.281,214.922 350.207,214.922C350.191,214.922 350.191,214.906 350.191,214.887C350.191,214.832 350.371,214.602 350.711,214.223C352.477,212.312 353.359,211.035 353.359,210.387C353.359,209.793 353.07,209.488 352.512,209.488C352.188,209.488 351.918,209.559 351.664,209.738C351.469,209.867 351.359,209.937 351.305,209.937C351.27,209.918 351.234,209.883 351.18,209.883C351.199,209.812 351.234,209.648 351.289,209.379C351.559,208.066 352.223,207.418 353.25,207.418C354.113,207.418 354.547,207.957 354.547,209.02Z" style="fill:rgb(0,162,181);fill-rule:nonzero;"/>
            <path d="M346.23,184.16C346.23,184.973 345.887,185.871 345.238,186.898C344.574,187.961 343.691,188.859 342.629,189.617C342.215,189.902 341.965,190.066 341.891,190.066C341.875,190.066 341.875,190.047 341.875,190.031C341.875,189.977 342.055,189.742 342.395,189.363C344.16,187.457 345.043,186.176 345.043,185.531C345.043,184.937 344.754,184.629 344.195,184.629C343.871,184.629 343.602,184.703 343.352,184.883C343.152,185.008 343.043,185.078 342.988,185.078C342.953,185.062 342.918,185.027 342.863,185.027C342.883,184.953 342.918,184.793 342.973,184.523C343.242,183.207 343.906,182.559 344.934,182.559C345.797,182.559 346.23,183.102 346.23,184.16Z" style="fill:rgb(255,97,5);fill-rule:nonzero;"/>
            <path d="M332.801,135.113C332.801,135.707 332.551,136.391 332.047,137.164C331.543,137.957 330.895,138.641 330.102,139.199C329.777,139.414 329.598,139.539 329.527,139.539L329.527,139.523C329.527,139.469 329.652,139.305 329.922,139C331.234,137.578 331.902,136.605 331.902,136.137C331.902,135.668 331.688,135.453 331.254,135.453C331.02,135.453 330.82,135.508 330.625,135.652C330.48,135.742 330.391,135.797 330.355,135.797C330.336,135.777 330.301,135.758 330.266,135.758C330.281,135.707 330.316,135.578 330.336,135.383C330.551,134.391 331.055,133.906 331.828,133.906C332.477,133.906 332.801,134.301 332.801,135.113Z" style="fill:rgb(0,162,181);fill-rule:nonzero;"/>
            <g transform="matrix(0.102262,0,0,0.102262,221.984,60.2865)">
                <path d="M633.65,1320.79C623.553,1316.55 615.831,1312.62 610.726,1308.7C602.776,1302.89 596.625,1295.13 592.039,1285.43C588.723,1278.41 586.426,1266.26 585.017,1248.84C577.499,1265.01 567.46,1277.07 554.909,1285.19C569.096,1289.48 578.55,1292.83 583.257,1295.29C591.012,1299.54 594.865,1305.15 594.865,1312.22C594.865,1317.14 593.114,1323.29 589.75,1330.7C585.546,1339.14 580.431,1346.37 573.938,1352.32C561.06,1363.98 541.697,1375.58 515.647,1387.35C488.374,1399.69 467.056,1405.84 451.782,1405.84C430.806,1405.84 414.994,1398.81 404.413,1384.9C395.622,1373.44 391.192,1358.51 391.192,1340.02C391.192,1310.26 398.262,1284.21 412.51,1262.21C415.336,1257.63 417.243,1255.53 418.319,1255.53C418.661,1255.72 418.847,1256.06 418.847,1256.6C418.847,1258.02 418.123,1260.46 416.559,1263.97C405.479,1287.73 400.023,1307.63 400.023,1323.64C400.023,1337.73 403.729,1349.69 411.092,1359.54C420.802,1372.56 435.735,1379.1 455.83,1379.1C470.606,1379.1 488.902,1374.7 510.904,1365.88C527.792,1359.05 544.524,1350.56 561.06,1340.56C576.04,1331.74 583.414,1326.27 583.414,1324.17C583.414,1321.88 573.214,1317.83 552.816,1312.22C538.91,1308.51 525.161,1304.65 511.442,1300.76C507.931,1299.54 506.514,1297.24 507.394,1294.07C507.931,1291.24 508.958,1286.7 510.562,1280.36L510.851,1280.36C511.732,1279.65 516.822,1277.4 526.227,1273.67C543.643,1266.8 556.131,1260.46 564.237,1254.65C577.263,1245.33 583.942,1234.59 583.942,1222.79C583.942,1213.47 583.257,1193.57 582.191,1162.78C580.773,1126.15 579.209,1100.44 577.791,1085.85C574.965,1058.39 572.334,1041.12 570.232,1034.29C572.334,1020.91 573.938,1013.16 574.623,1011.02C575.307,1009.11 576.04,1008.24 576.569,1008.24C577.067,1008.24 577.791,1009.11 578.485,1011.02C580.431,1017.36 582.035,1023.17 583.257,1028.82C585.888,1040.78 587.99,1054.53 589.594,1070.34C592.234,1094.29 594.141,1125.27 595.217,1163.28C596.439,1200.99 597.691,1225.43 598.913,1236.7C601.211,1258.16 605.797,1272.07 612.476,1278.76C619.507,1285.63 627.076,1290.9 634.635,1294.61L634.834,1294.7C643.349,1298.49 660.896,1300.6 687.616,1300.6C724.248,1300.6 763.48,1290.56 805.724,1270.66C811.914,1267.86 815.963,1266.26 817.87,1266.26C818.935,1266.26 819.63,1266.8 819.63,1267.86C819.63,1268.56 819.473,1269.44 819.092,1270.66C818.065,1273.67 817.713,1276.12 817.713,1278.22C817.713,1284.94 823.14,1291.24 833.916,1297.05C852.555,1267.33 863.82,1249.91 867.868,1244.6C884.219,1224.55 900.265,1214.5 916.459,1214.5C930.364,1214.5 942.666,1220.15 953.589,1231.77C962.761,1241.28 967.299,1249.72 967.299,1256.94C967.299,1259.58 965.93,1264.85 963.104,1272.79C960.082,1281.24 957.295,1287.04 954.655,1290.22C948.856,1297.24 938.804,1304.65 924.37,1312.22C903.59,1323.29 882.654,1328.94 861.189,1328.94C851.332,1328.94 841.475,1327.15 831.775,1323.48C827.912,1334.9 825.086,1340.71 823.336,1340.71C822.798,1340.71 822.456,1339.83 822.456,1338.07C822.456,1334.9 823.522,1329.29 825.624,1321.19C814.887,1314.66 809.616,1304.27 809.616,1290.22C794.645,1298.84 778.256,1306.41 760.497,1312.9C733.762,1322.42 709.276,1327.34 686.922,1327.34C662.094,1327.34 644.678,1325.24 634.635,1321.19L633.65,1320.79ZM957.452,1269.78C957.452,1266.45 952.904,1260.99 943.732,1253.05C932.653,1243.91 921.388,1239.33 909.585,1239.33C888.267,1239.33 865.776,1259.38 841.818,1299.88C848.849,1302.7 857.288,1304.11 867.145,1304.11C881.246,1304.11 896.021,1301.48 911.345,1296.17C923.294,1291.97 934.413,1286.85 944.426,1280.51C953.051,1275.24 957.452,1271.53 957.452,1269.78Z" style="fill:rgb(235,103,59);fill-rule:nonzero;"/>
            </g>
            <path d="M295.379,164.379C295.379,163.496 295.234,162.777 294.984,162.219C294.984,161.895 295.234,161.141 295.738,159.953C295.793,159.809 295.867,159.734 295.922,159.734C295.957,159.734 296.027,159.809 296.102,159.953C296.242,160.277 296.566,161.141 297.109,162.527C297.648,163.984 297.973,164.883 298.063,165.227C298.152,165.477 298.188,165.656 298.188,165.785C298.188,166.199 297.793,165.965 297.02,165.047C296.93,164.937 296.891,165.008 296.891,165.227C296.891,165.316 297.055,167.531 297.359,171.887C297.684,176.223 297.848,178.742 297.848,179.445C297.848,181.57 297.523,183.441 296.875,185.043C296.73,185.387 296.621,185.621 296.551,185.781C296.426,185.996 296.336,186.016 296.316,185.871C296.281,185.711 296.297,185.367 296.352,184.844C296.426,184.109 296.477,183.262 296.477,182.273C296.477,181.406 296.281,178.402 295.922,173.234C295.559,168.086 295.379,165.137 295.379,164.379Z" style="fill:rgb(0,162,181);fill-rule:nonzero;"/>
            <path d="M306.305,176.781C305.855,175.379 305.531,174.062 305.371,172.84C305.316,172.371 305.262,172.082 305.227,171.977C305.172,171.707 305.047,171.473 304.867,171.219C304.992,170.805 305.191,170.211 305.461,169.457C305.551,169.238 305.641,169.133 305.711,169.133C305.785,169.133 305.891,169.238 306.055,169.457C306.773,170.465 307.387,171.363 307.871,172.156C308.07,172.48 308.18,172.715 308.18,172.84C308.18,172.949 308.125,173 308.035,173C307.855,173 307.531,172.84 307.043,172.551C307.008,172.551 306.973,172.57 306.938,172.641C307.117,173.234 307.367,174.047 307.727,175.09C308.555,177.43 308.969,179.121 308.969,180.184C308.969,181.246 308.809,182.184 308.484,182.973C307.961,184.324 307.043,185.008 305.73,185.008C304.344,185.008 303.266,184.395 302.453,183.191C301.969,182.469 301.555,181.391 301.176,179.949C301.016,181.406 300.547,182.668 299.789,183.711C298.871,184.973 297.684,185.621 296.227,185.621C294.641,185.621 293.527,184.844 292.879,183.332C292.52,182.469 292.355,181.461 292.355,180.309C292.355,178.762 292.535,177.34 292.895,176.027C292.984,175.664 293.039,175.434 293.039,175.305C293.039,175.25 293.023,175.215 292.984,175.215C292.934,175.215 292.77,175.395 292.555,175.738C292.195,176.297 291.816,177.43 291.422,179.141C290.914,181.336 290.594,182.648 290.43,183.117C290.215,183.746 289.926,184.25 289.547,184.629C289.223,184.953 288.973,185.117 288.738,185.117C287.711,185.117 286.922,184.469 286.363,183.172C285.91,182.09 285.695,180.797 285.695,179.266C285.695,178.203 285.859,177.051 286.184,175.793C286.254,175.523 286.324,175.305 286.398,175.16C286.508,175 286.559,174.98 286.598,175.109C286.633,175.25 286.613,175.504 286.543,175.883C286.363,176.836 286.273,177.699 286.273,178.492C286.273,181.57 286.922,183.117 288.215,183.117C288.773,183.117 289.223,182.703 289.602,181.859C289.816,181.355 290.105,180.363 290.43,178.906C290.809,177.285 291.133,176.117 291.383,175.359C291.691,174.496 292.066,173.738 292.5,173.074C292.984,172.336 293.418,171.957 293.762,171.957C294.066,171.957 294.211,172.266 294.211,172.895C294.211,173.398 294.066,174.441 293.777,176.008C293.488,177.574 293.348,178.617 293.348,179.156C293.348,180.328 293.578,181.227 294.066,181.895C294.551,182.543 295.234,182.883 296.102,182.883C297.648,182.883 298.836,182.379 299.609,181.391C300.223,180.617 300.547,179.66 300.547,178.527C300.547,177.43 300.457,176.367 300.258,175.34C300.133,174.621 299.969,173.937 299.754,173.289C299.574,172.73 299.484,172.461 299.484,172.496C299.484,171.867 299.684,171.023 300.098,169.922C300.188,169.691 300.258,169.582 300.313,169.582C300.383,169.582 300.473,169.727 300.637,170.051C301.211,171.254 301.68,173.109 302.004,175.613C302.328,177.969 302.777,179.645 303.391,180.652C303.984,181.66 304.883,182.164 306.109,182.164C307.133,182.164 307.801,181.785 308.125,181.047C308.125,180.797 307.906,180.238 307.477,179.41C306.938,178.348 306.539,177.465 306.305,176.781Z" style="fill:rgb(0,162,181);fill-rule:nonzero;"/>
            <path d="M305.027,165.137C305.027,165.496 304.938,165.855 304.793,166.234C304.578,166.738 304.309,166.988 303.965,166.988C303.445,166.988 303.086,166.629 302.867,165.91C302.617,166.809 302.164,167.277 301.5,167.277C301.246,167.277 301.031,167.152 300.852,166.898C300.637,166.613 300.547,166.234 300.547,165.746L300.547,164.633C300.547,164.543 300.473,164.488 300.348,164.453C300.223,164.414 300.168,164.309 300.168,164.164C300.168,163.91 300.258,163.676 300.473,163.426C300.672,163.227 300.816,163.121 300.926,163.121C301.051,163.121 301.121,163.371 301.121,163.859C301.121,164.109 301.086,164.324 301.051,164.504C301.016,164.668 300.996,164.828 300.996,164.957C300.996,165.207 301.051,165.461 301.156,165.711C301.285,166 301.445,166.145 301.645,166.145C301.895,166.145 302.129,166.02 302.348,165.801C302.563,165.586 302.672,165.316 302.672,165.008C302.672,164.848 302.617,164.543 302.508,164.129C302.398,163.715 302.348,163.445 302.348,163.355C302.348,163.266 302.398,163.121 302.488,162.922C302.578,162.723 302.652,162.633 302.688,162.633C302.777,162.633 302.887,162.902 303.012,163.461C303.156,164.02 303.227,164.434 303.227,164.703C303.227,165.461 303.516,165.855 304.109,165.855C304.363,165.855 304.523,165.711 304.578,165.461C304.074,164.559 303.82,163.875 303.82,163.406C303.82,163.137 303.875,162.887 304.02,162.687C304.109,162.527 304.184,162.453 304.219,162.453C304.254,162.453 304.273,162.543 304.289,162.723C304.324,162.977 304.363,163.191 304.414,163.355C304.434,163.371 304.559,163.676 304.793,164.289C304.938,164.668 305.027,164.937 305.027,165.137Z" style="fill:rgb(255,97,5);fill-rule:nonzero;"/>
            <path d="M299.105,161.246C300.887,160.617 302.813,159.934 304.902,159.215C305.047,159.16 305.117,159.141 305.152,159.16C305.191,159.176 305.191,159.25 305.117,159.375C304.957,159.789 304.828,160.023 304.723,160.094C302.977,160.707 300.961,161.52 298.656,162.508C298.746,162.113 298.906,161.699 299.105,161.246Z" style="fill:rgb(0,162,181);fill-rule:nonzero;"/>
            <path d="M292.195,168.176C292.266,167.906 292.285,167.637 292.246,167.387C292.195,167.098 292.051,166.937 291.852,166.937C291.742,166.937 291.602,166.988 291.438,167.078C291.258,167.187 291.168,167.277 291.168,167.367C291.168,167.582 291.512,167.855 292.195,168.176ZM291.672,169.348C290.824,168.914 290.395,168.449 290.395,167.961C290.395,167.387 290.664,166.844 291.203,166.359C291.742,165.875 292.195,165.711 292.535,165.836C292.844,165.945 292.984,166.27 292.984,166.809C292.984,167.277 292.895,167.836 292.699,168.43C293.129,168.684 293.383,168.879 293.508,169.059C293.508,169.293 293.309,169.672 292.934,170.23C292.824,170.051 292.555,169.832 292.141,169.602C291.672,170.246 291.078,170.84 290.34,171.383C289.512,171.992 288.758,172.461 288.055,172.77C287.91,172.84 287.117,173.145 285.66,173.687C285.426,173.758 285.281,173.812 285.211,173.812C285.176,173.812 285.156,173.793 285.156,173.777C285.156,173.723 285.281,173.613 285.535,173.453C286.613,172.805 287.695,172.172 288.773,171.527C290.07,170.734 291.023,170.016 291.672,169.348Z" style="fill:rgb(255,97,5);fill-rule:nonzero;"/>
            <path d="M288.629,164.434C288.629,164.793 288.539,165.152 288.395,165.531C288.18,166.035 287.91,166.289 287.566,166.289C287.047,166.289 286.688,165.926 286.469,165.207C286.219,166.109 285.77,166.574 285.102,166.574C284.852,166.574 284.633,166.449 284.453,166.199C284.238,165.91 284.148,165.531 284.148,165.047L284.148,163.93C284.148,163.84 284.074,163.785 283.949,163.75C283.824,163.715 283.77,163.605 283.77,163.461C283.77,163.211 283.859,162.977 284.074,162.723C284.273,162.527 284.418,162.418 284.527,162.418C284.652,162.418 284.723,162.668 284.723,163.156C284.723,163.406 284.688,163.625 284.652,163.805C284.617,163.965 284.598,164.129 284.598,164.254C284.598,164.504 284.652,164.758 284.762,165.008C284.887,165.297 285.047,165.441 285.246,165.441C285.496,165.441 285.73,165.316 285.949,165.102C286.164,164.883 286.273,164.613 286.273,164.309C286.273,164.145 286.219,163.84 286.109,163.426C286.004,163.012 285.949,162.742 285.949,162.652C285.949,162.562 286.004,162.418 286.094,162.219C286.184,162.023 286.254,161.934 286.289,161.934C286.379,161.934 286.488,162.203 286.613,162.758C286.758,163.316 286.828,163.73 286.828,164C286.828,164.758 287.117,165.152 287.711,165.152C287.965,165.152 288.125,165.008 288.18,164.758C287.676,163.859 287.426,163.172 287.426,162.707C287.426,162.437 287.477,162.184 287.621,161.984C287.711,161.824 287.785,161.75 287.82,161.75C287.855,161.75 287.875,161.84 287.891,162.023C287.93,162.273 287.965,162.488 288.02,162.652C288.035,162.668 288.16,162.977 288.395,163.586C288.539,163.965 288.629,164.234 288.629,164.434Z" style="fill:rgb(0,162,181);fill-rule:nonzero;"/>
            <path d="M283.141,161.066C284.922,160.437 286.848,159.754 288.938,159.035C289.078,158.98 289.152,158.961 289.188,158.98C289.223,158.996 289.223,159.07 289.152,159.195C288.988,159.609 288.863,159.844 288.758,159.914C287.012,160.527 284.992,161.336 282.691,162.328C282.781,161.934 282.941,161.52 283.141,161.066Z" style="fill:rgb(255,97,5);fill-rule:nonzero;"/>
            <path d="M311.418,180.852C313.199,180.219 315.125,179.535 317.215,178.816C317.359,178.762 317.43,178.742 317.465,178.762C317.504,178.781 317.504,178.852 317.43,178.977C317.27,179.391 317.141,179.625 317.035,179.699C315.289,180.309 313.273,181.121 310.969,182.109C311.059,181.715 311.219,181.301 311.418,180.852Z" style="fill:rgb(255,97,5);fill-rule:nonzero;"/>
            <path d="M306.035,200.613C308.574,199.695 311.258,198.707 314.102,197.68C314.262,197.625 314.336,197.609 314.371,197.625C314.406,197.645 314.387,197.715 314.336,197.84C314.172,198.254 314.047,198.488 313.938,198.578C311.563,199.445 308.773,200.523 305.586,201.855C305.676,201.477 305.84,201.062 306.035,200.613Z" style="fill:rgb(0,162,181);fill-rule:nonzero;"/>
            <path d="M286.578,219.605L287.281,218.184C287.336,218.074 287.387,218.02 287.461,218.02C287.551,218.02 287.945,218.254 288.629,218.723C289.332,219.191 289.676,219.477 289.676,219.551C289.676,219.875 289.367,220.504 288.758,221.492C288.684,221.621 288.613,221.637 288.523,221.582C287.93,221.133 287.242,220.664 286.488,220.18C286.234,220.754 285.984,221.242 285.73,221.637C285.66,221.762 285.59,221.801 285.496,221.746C284.813,221.223 284.113,220.738 283.391,220.27C283.355,220.25 283.355,220.199 283.391,220.109L284.258,218.324C284.309,218.219 284.363,218.164 284.438,218.164C284.527,218.164 284.852,218.363 285.426,218.738C286.02,219.137 286.398,219.422 286.578,219.605Z" style="fill:rgb(255,97,5);fill-rule:nonzero;"/>
            <path d="M285.875,204.52C285.875,205.023 285.695,205.508 285.355,205.977C284.977,206.48 284.543,206.734 284.039,206.734C283.52,206.734 283.266,206.48 283.266,205.977C283.266,205.617 283.465,205.078 283.879,204.395C284.293,203.691 284.633,203.352 284.922,203.352C285.176,203.352 285.406,203.457 285.59,203.672C285.77,203.906 285.875,204.176 285.875,204.52ZM285.426,205.094C285.426,204.629 285.102,204.395 284.453,204.395C284.363,204.395 284.203,204.539 283.984,204.824C283.77,205.113 283.66,205.328 283.66,205.437C283.734,205.602 283.984,205.691 284.398,205.691C285.086,205.691 285.426,205.492 285.426,205.094Z" style="fill:rgb(0,162,181);fill-rule:nonzero;"/>
            <path d="M264.672,224.375C267.211,223.457 269.891,222.465 272.734,221.441C272.898,221.387 272.969,221.367 273.008,221.387C273.043,221.402 273.023,221.477 272.969,221.602C272.809,222.016 272.684,222.25 272.574,222.34C270.199,223.203 267.406,224.285 264.223,225.617C264.313,225.238 264.473,224.824 264.672,224.375Z" style="fill:rgb(234,100,59);fill-rule:nonzero;"/>
            <g transform="matrix(0.102262,0,0,0.102262,221.984,60.2865)">
                <path d="M726.35,1515.16C734.789,1519.02 752.401,1521.12 779.331,1521.12C809.43,1521.12 837.085,1515.85 862.216,1505.65C851.137,1499.66 841.632,1491.93 834.063,1482.23C823.864,1469.74 818.935,1456.18 818.935,1441.4C818.935,1426.42 824.059,1414.28 834.601,1404.8C846.746,1393.69 861.189,1388.23 877.921,1388.23C888.648,1388.23 899.385,1390.37 910.651,1394.76C919.442,1398.09 926.472,1401.98 931.929,1406.18C936.515,1409.73 938.618,1412.03 938.618,1412.71C938.618,1413.06 938.461,1413.25 937.924,1413.25C937.053,1413.25 935.097,1412.71 931.929,1411.84C922.952,1409.2 912.567,1407.98 900.803,1407.98C884.6,1407.98 868.944,1410.08 853.777,1414.66C839.334,1418.87 831.433,1423.26 830.21,1427.69C831.775,1439.45 838.992,1451.99 851.489,1465.16C866.265,1480.67 881.969,1488.38 898.505,1488.38C903.434,1488.38 913.975,1484.72 930.169,1477.66C961.686,1463.75 977.88,1456.72 979.297,1456.18C982.084,1454.96 983.884,1454.62 984.568,1455.12C985.253,1455.84 984.91,1457.4 983.502,1460.04L974.711,1478.38C973.831,1480.13 972.227,1481.55 970.125,1482.43C955.007,1488.58 922.424,1502.83 872.073,1525.01C837.965,1540.34 806.79,1547.9 778.637,1547.9C753.809,1547.9 736.393,1545.79 726.35,1541.75L725.364,1541.34C715.244,1537.1 707.156,1533.14 702.05,1529.22C694.148,1523.41 687.998,1515.69 683.411,1506C680.928,1500.72 679.021,1491.4 677.222,1477.84C677.222,1495.26 672.674,1508.1 663.512,1516.92C656.481,1523.61 648.012,1526.96 638.341,1526.96L637.996,1526.96C630.77,1526.9 624.539,1524.96 619.312,1521.31C612.29,1516.58 608.046,1509.02 606.824,1498.62C604.037,1504.43 598.913,1510.58 591.696,1516.92C580.969,1526.24 569.313,1531.02 557.353,1531.02L556.506,1531.02C547.823,1530.98 541.577,1530.44 537.835,1529.22C529.21,1526.78 522.179,1521.12 516.527,1512.53C512.86,1506.53 509.301,1500.72 505.79,1494.57C502.621,1489.64 499.297,1487.16 496.128,1487.16C486.076,1487.16 475.691,1495.6 464.611,1512.53C462.665,1515.51 459.155,1523.41 454.031,1536.09C448.956,1548.78 444.555,1558.1 440.849,1563.75C434.855,1572.54 428.704,1576.93 422.025,1576.93C412.315,1576.93 404.071,1569.17 397.196,1553.89C391.192,1540.34 388.21,1526.24 388.21,1511.65C388.21,1494.04 389.97,1479.94 393.49,1469.4C394.556,1465.7 395.622,1463.94 396.502,1463.94C397.539,1463.94 397.725,1466.23 397.196,1470.81C395.779,1482.05 395.094,1491.55 395.094,1499.31C395.094,1536.63 403.729,1555.27 420.949,1555.27C427.824,1555.27 434.317,1549.84 440.125,1538.92C446.12,1525.89 452.124,1512.87 458.079,1499.84C463.545,1489.26 470.078,1479.94 477.832,1472.38C485.548,1464.62 492.608,1460.95 499.101,1460.95C503.883,1460.95 508.274,1463.94 512.478,1469.93C515.833,1475.55 519.157,1481.01 522.521,1486.48C527.45,1493.31 532.378,1497.9 537.493,1500.38C542.578,1503.01 549.11,1504.23 557.353,1504.23L558.054,1504.23C572.72,1504.11 585.176,1500.06 595.217,1492.09C596.087,1491.4 600.136,1487.16 607.166,1479.26C613.699,1472.03 617.219,1468.52 617.942,1468.52C618.969,1468.52 619.693,1469.4 619.693,1471.15C619.693,1472.03 619.507,1473.07 619.165,1474.13C618.089,1477.66 617.561,1480.67 617.561,1483.45C617.561,1494.57 624.622,1500.19 638.527,1500.19C645.558,1500.19 652.051,1498.62 657.703,1495.26C663.316,1492.09 667.218,1487.7 669.125,1482.23C670.542,1478.53 671.266,1472.57 671.266,1464.28C671.266,1425.93 668.978,1388.61 664.578,1352.16C662.974,1339.83 660.343,1322.6 656.295,1300.42C658.045,1289.34 659.805,1281.39 661.409,1277.19C662.094,1275.24 662.827,1274.36 663.316,1274.36C663.854,1274.36 664.578,1275.43 665.076,1277.34C672.674,1301.48 678.483,1337.19 682.531,1384.56C686.198,1426.62 688.496,1450.91 689.367,1457.26C692.545,1478.91 697.317,1492.81 704.005,1499.31C710.917,1506.07 718.359,1511.3 725.987,1514.98L726.35,1515.16Z" style="fill:rgb(0,162,181);fill-rule:nonzero;"/>
            </g>
            <path d="M323.387,230.746C323.387,232.906 322.867,234.562 321.84,235.73C320.688,237.047 318.637,238.523 315.719,240.16C313.145,241.637 311.652,242.375 311.203,242.375C311.094,242.375 309.781,242.68 307.242,243.309C304.543,243.957 302.852,244.336 302.184,244.445C301.445,244.57 300.996,244.625 300.836,244.625C300.762,244.625 300.727,244.605 300.707,244.57C300.707,244.516 301.195,244.246 302.203,243.797C302.543,243.633 304.633,242.734 308.43,241.113C311.059,239.996 313.254,238.973 315.02,238.02C317.645,236.594 319.645,235.355 321.012,234.273C322.055,233.48 322.578,232.906 322.578,232.547C322.344,232.168 322.109,231.914 321.859,231.789C321.461,231.574 320.762,231.465 319.754,231.465C317.609,231.465 316.547,230.727 316.547,229.27C316.547,228.137 316.906,227.145 317.629,226.281C318.313,225.488 319.016,225.094 319.734,225.094C320.707,225.094 321.59,225.797 322.363,227.219C323.047,228.461 323.387,229.629 323.387,230.746ZM320.867,228.801C320.238,227.937 319.66,227.523 319.121,227.523C318.328,227.523 317.934,227.738 317.934,228.172C317.934,228.676 318.473,228.945 319.59,228.945C319.984,228.945 320.418,228.891 320.867,228.801Z" style="fill:rgb(234,100,59);fill-rule:nonzero;"/>
            <g transform="matrix(0.102262,0,0,0.102262,221.984,60.2865)">
                <path d="M533.601,1646.1C551.026,1638.73 560.033,1628.69 560.033,1616.19C560.033,1598.25 559.309,1579.76 557.549,1560.92C555.984,1541.9 553.843,1524.83 551.398,1509.16C554.185,1495.26 555.984,1487.5 556.483,1486.1C557.353,1484.33 558.087,1483.31 558.615,1483.31C559.114,1483.31 559.837,1484.33 560.375,1486.28C565.46,1505.11 569.352,1529.4 571.992,1559.16C574.818,1590.3 576.911,1609.51 578.133,1617.07C581.116,1636.06 586.044,1648.75 592.772,1655.28C599.793,1662.11 607.166,1667.42 614.774,1671.09L614.836,1671.23L614.921,1671.09C623.36,1674.98 640.972,1677.08 667.902,1677.08C705.414,1677.08 744.646,1667.04 786.01,1647.17C787.614,1646.45 788.836,1646.1 789.374,1646.1C790.059,1646.1 790.411,1646.45 790.411,1647.52C790.411,1648.39 790.254,1649.81 789.716,1652.26C789.188,1654.54 788.836,1656.3 788.836,1657.72C788.836,1666.35 795.183,1670.75 808.013,1670.75C819.092,1670.75 828.069,1666 835.139,1656.68C839.715,1649.62 844.116,1642.59 848.692,1635.56C850.266,1633.8 851.489,1632.92 852.75,1632.92C853.973,1632.92 854.501,1633.96 854.501,1635.9C854.501,1636.59 854.315,1637.47 854.119,1638.55C852.359,1646.1 851.489,1649.47 851.489,1648.75C851.489,1651.91 853.093,1654.92 856.261,1657.37C859.772,1660.35 864.015,1661.77 868.748,1661.77C874.752,1661.77 878.801,1660.2 880.551,1656.84C880.551,1656.68 878.605,1653.14 874.752,1646.64C875.242,1642.78 877.041,1636.79 879.485,1628.35C880.17,1625.86 881.089,1624.64 881.969,1624.64C882.654,1624.64 883.534,1625.32 884.756,1626.93C888.462,1632.2 890.408,1638.19 890.408,1645.04C890.408,1655.96 887.925,1665.48 883.192,1673.23C877.725,1682.74 869.971,1687.48 859.772,1687.48C852.555,1687.48 846.062,1682.2 840.067,1671.62C830.553,1688.89 818.065,1697.52 802.556,1697.52C786.01,1697.52 777.376,1689.42 776.887,1673.38C763.48,1680.45 748.694,1686.6 732.344,1691.87C708.396,1699.81 686.736,1703.86 667.218,1703.86C642.389,1703.86 624.973,1701.73 614.921,1697.68L614.887,1697.61L614.774,1697.86C604.193,1693.47 596.283,1689.23 591.012,1685.18C583.062,1679.37 576.911,1671.62 572.334,1661.96C569.01,1654.92 566.721,1642.06 565.303,1623.76C561.599,1647.32 550.857,1662.68 533.601,1670.05C537.851,1673.07 544.872,1678.64 554.185,1686.78C557.011,1689.57 558.615,1692.4 558.615,1695.04C558.615,1696.98 557.744,1701.37 555.984,1708.06C554.185,1714.94 552.816,1718.26 551.398,1718.26C550.674,1718.26 549.257,1717.58 547.506,1716.36C538.187,1710.89 527.107,1708.06 514.424,1708.06C496.275,1708.06 472.024,1720.21 441.729,1744.16C426.416,1757.18 411.092,1770.36 395.779,1783.58C382.216,1794.85 371.87,1800.46 364.985,1800.46C356.009,1800.46 348.254,1796.41 341.379,1788.16C334.7,1780.06 331.376,1770.02 331.376,1758.06C331.376,1741.53 338.064,1720.06 351.618,1693.62C353.036,1690.99 354.258,1689.57 355.138,1689.57C355.48,1689.57 355.666,1689.95 355.666,1690.65C355.666,1693.47 352.654,1702.6 346.846,1718.46C340.89,1734.11 338.064,1746.6 338.064,1755.96C338.064,1762.8 339.629,1768.6 342.983,1772.85C346.503,1777.24 351.236,1779.54 357.426,1779.54C366.208,1779.54 376.788,1774.27 389.09,1763.87C401.587,1752.79 414.27,1741.53 426.758,1730.26C458.803,1703.13 483.445,1688.16 500.715,1685.03C495.591,1683.42 492.422,1682.36 491.347,1681.86C489.782,1680.98 489.44,1679.91 490.124,1678.31L497.537,1659.67C498.231,1658.25 502.084,1656.5 509.154,1654.4C519.546,1651.14 527.617,1648.56 533.08,1646.32L533.601,1646.1Z" style="fill:rgb(234,100,59);fill-rule:nonzero;"/>
            </g>
            <path d="M314.297,223.113C316.836,222.195 319.52,221.207 322.363,220.18C322.523,220.125 322.598,220.109 322.633,220.125C322.668,220.145 322.648,220.215 322.598,220.34C322.434,220.754 322.309,220.988 322.199,221.078C319.824,221.945 317.035,223.023 313.848,224.355C313.938,223.977 314.102,223.562 314.297,223.113Z" style="fill:rgb(0,162,181);fill-rule:nonzero;"/>
            <path d="M301.535,224.609C304.074,223.691 306.758,222.699 309.602,221.672C309.762,221.621 309.836,221.602 309.871,221.621C309.906,221.637 309.887,221.711 309.836,221.836C309.672,222.25 309.547,222.484 309.438,222.574C307.063,223.437 304.273,224.52 301.086,225.852C301.176,225.473 301.34,225.059 301.535,224.609Z" style="fill:rgb(255,97,5);fill-rule:nonzero;"/>
            <path d="M280.422,207.652C280.422,208.012 280.332,208.371 280.188,208.75C279.973,209.254 279.703,209.504 279.359,209.504C278.84,209.504 278.477,209.145 278.262,208.426C278.012,209.324 277.559,209.793 276.895,209.793C276.641,209.793 276.426,209.668 276.246,209.414C276.031,209.129 275.941,208.75 275.941,208.262L275.941,207.148C275.941,207.059 275.867,207.004 275.742,206.969C275.617,206.934 275.563,206.824 275.563,206.68C275.563,206.426 275.652,206.195 275.867,205.941C276.066,205.742 276.211,205.637 276.316,205.637C276.445,205.637 276.516,205.887 276.516,206.375C276.516,206.625 276.48,206.84 276.445,207.023C276.406,207.184 276.391,207.344 276.391,207.473C276.391,207.723 276.445,207.977 276.551,208.227C276.68,208.516 276.84,208.66 277.039,208.66C277.289,208.66 277.523,208.535 277.738,208.316C277.957,208.102 278.063,207.832 278.063,207.527C278.063,207.363 278.012,207.059 277.902,206.645C277.793,206.23 277.738,205.961 277.738,205.871C277.738,205.781 277.793,205.637 277.883,205.437C277.973,205.238 278.047,205.148 278.082,205.148C278.172,205.148 278.281,205.418 278.406,205.977C278.551,206.535 278.621,206.949 278.621,207.219C278.621,207.977 278.91,208.371 279.504,208.371C279.758,208.371 279.918,208.227 279.973,207.977C279.469,207.074 279.215,206.391 279.215,205.922C279.215,205.652 279.27,205.402 279.414,205.203C279.504,205.043 279.574,204.969 279.613,204.969C279.648,204.969 279.664,205.059 279.684,205.238C279.719,205.492 279.758,205.707 279.809,205.871C279.828,205.887 279.953,206.195 280.188,206.805C280.332,207.184 280.422,207.453 280.422,207.652Z" style="fill:rgb(255,97,5);fill-rule:nonzero;"/>
            <path d="M266.652,228.73C269.191,227.812 271.871,226.82 274.715,225.797C274.879,225.742 274.949,225.723 274.984,225.742C275.023,225.758 275.004,225.832 274.949,225.957C274.789,226.371 274.66,226.605 274.555,226.695C272.18,227.559 269.387,228.641 266.203,229.973C266.293,229.594 266.453,229.18 266.652,228.73Z" style="fill:rgb(0,162,180);fill-rule:nonzero;"/>
            <path d="M286.559,188.969C288.344,188.336 290.27,187.652 292.355,186.934C292.5,186.879 292.57,186.863 292.609,186.879C292.645,186.898 292.645,186.969 292.57,187.094C292.41,187.508 292.285,187.742 292.176,187.816C290.43,188.426 288.414,189.238 286.109,190.227C286.199,189.832 286.363,189.418 286.559,188.969Z" style="fill:rgb(255,97,5);fill-rule:nonzero;"/>
            <path d="M273.926,204.34C275.707,203.711 277.633,203.027 279.719,202.305C279.863,202.25 279.938,202.234 279.973,202.25C280.008,202.27 280.008,202.34 279.938,202.469C279.773,202.883 279.648,203.117 279.539,203.187C277.793,203.801 275.777,204.609 273.473,205.602C273.563,205.203 273.727,204.789 273.926,204.34Z" style="fill:rgb(0,162,181);fill-rule:nonzero;"/>
            <path d="M257.902,224.914C257.902,225.383 257.707,225.902 257.328,226.496C256.933,227.109 256.43,227.648 255.816,228.082C255.563,228.262 255.422,228.352 255.367,228.352L255.367,228.332C255.367,228.297 255.457,228.152 255.672,227.937C256.68,226.82 257.203,226.082 257.203,225.707C257.203,225.344 257.023,225.184 256.699,225.184C256.519,225.184 256.355,225.219 256.211,225.328C256.105,225.398 256.031,225.437 256.015,225.437C255.996,225.418 255.977,225.398 255.941,225.398C255.961,225.363 255.977,225.273 255.996,225.113C256.156,224.355 256.555,223.977 257.148,223.977C257.652,223.977 257.902,224.285 257.902,224.914Z" style="fill:rgb(0,162,181);fill-rule:nonzero;"/>
            <g transform="matrix(1.51037,0,0,1.51037,-160.221,-82.9812)">
                <path d="M315.199,161.336C315.199,161.805 315,162.328 314.621,162.922C314.227,163.535 313.723,164.074 313.109,164.504C312.859,164.687 312.715,164.777 312.66,164.777L312.66,164.758C312.66,164.723 312.75,164.578 312.965,164.363C313.973,163.246 314.496,162.508 314.496,162.129C314.496,161.77 314.316,161.609 313.992,161.609C313.813,161.609 313.648,161.645 313.508,161.75C313.398,161.824 313.324,161.859 313.309,161.859C313.289,161.84 313.273,161.824 313.234,161.824C313.254,161.789 313.273,161.699 313.289,161.535C313.453,160.781 313.848,160.402 314.441,160.402C314.945,160.402 315.199,160.707 315.199,161.336Z" style="fill:rgb(255,97,5);fill-rule:nonzero;"/>
            </g>
            <path d="M256.961,212.77C257.144,212.77 257.32,212.691 257.476,212.535C257.672,212.359 257.762,212.137 257.762,211.863C257.762,211.562 257.594,211.414 257.254,211.414C257.105,211.414 256.98,211.465 256.863,211.551C256.875,211.375 256.992,211.102 257.234,210.73C257.457,210.391 257.683,210.117 257.898,209.922C257.957,209.863 257.976,209.805 257.945,209.766C257.937,209.727 257.898,209.715 257.84,209.754C257.555,209.93 257.254,210.254 256.922,210.73C256.562,211.27 256.375,211.738 256.367,212.125C256.375,212.555 256.57,212.77 256.961,212.77ZM261.109,212" style="fill:rgb(255,97,5);fill-rule:nonzero;"/>
        </g>
    </g>
</svg>
